M48
;FILE_FORMAT=2:4
INCH
;TYPE=PLATED
T01C0.013
T02C0.025
T04C0.038
T06C0.087
;TYPE=NON_PLATED
T03C0.030
T05C0.070
T07C0.184
%
T01
X+235625Y+273500
Y+274500
X+234875Y+274750
X+239375Y+273500
X+238750
X+237875Y+274500
X+239375Y+274750
X+237875Y+277125
X+239500Y+280500
X+240625Y+273500
X+240875Y+274125
X+241625Y+273500
X+242125Y+282375
X+244625Y+266500
X+245250Y+271500
X+247500Y+270375
X+247125Y+271500
X+248625Y+270375
X+247312Y+272000
X+247500Y+272500
X+247875Y+274000
X+251250Y+269250
X+249625Y+275625
X+251625Y+275000
X+249750Y+273500
X+254125Y+268500
X+253875Y+269250
X+253750Y+271125
X+254125Y+281000
X+254500Y+280125
X+253375Y+283125
X+256000Y+268500
X+255375Y+268875
X+257375Y+272500
X+256375Y+273875
X+259500Y+270625
X+258875Y+272000
X+259000Y+283500
X+262000Y+270875
X+261625Y+271375
X+262500Y+271250
X+262625Y+273875
X+263625Y+276875
X+262250Y+276625
X+263125Y+279625
X+262500
X+261875
X+264500Y+268625
X+265125
X+265875Y+271875
X+264375Y+272375
X+265375Y+272500
Y+278125
X+265750Y+277625
X+265375Y+277125
X+265750Y+276625
X+266000Y+281625
X+266625Y+280875
X+268375Y+268750
Y+269375
X+267875Y+267437
Y+271375
X+267625Y+272000
X+269625Y+275250
X+268750Y+273750
X+267625Y+273875
X+268125Y+274625
X+268750
X+267625Y+276625
X+267375Y+280875
X+268000Y+281625
X+238250Y+273125
X+237625Y+273000
X+242250Y+281750
X+248000Y+270125
X+247000
X+246625Y+276250
X+247937Y+272813
X+248375Y+273125
X+249625Y+270125
X+251625Y+276000
X+250375Y+276250
X+249375Y+278875
X+254500Y+279125
X+256250Y+279000
X+260000Y+270250
X+263000Y+270125
X+265000Y+282125
X+265500Y+281875
X+267625Y+273250
X+268125Y+279250
X+269000Y+278875
X+240000Y+273500
X+239750Y+277125
X+234250Y+279625
Y+280250
X+240125Y+280375
X+240250Y+279750
X+249000Y+265875
X+246250Y+269375
X+248875Y+268250
X+251750Y+268500
X+246125Y+274625
X+246250Y+275250
X+252000Y+274500
Y+275500
X+248938Y+273687
X+246250Y+277375
X+252000Y+276500
X+254750Y+268500
X+255250Y+269625
X+258000Y+270750
X+263875Y+273750
X+264250Y+277000
X+254750Y+280750
X+257750Y+279875
X+263750Y+279625
X+267000Y+266687
X+269750Y+273875
X+240250Y+279000
X+239750Y+281875
T02
X+233000Y+275500
Y+284000
X+243500Y+265000
X+244375Y+272375
X+248500Y+264875
X+247500
X+246500Y+265000
X+251500Y+264875
X+250500
X+249500
X+254500
X+253500
X+252500
X+252875Y+280375
X+257500Y+264875
X+256500
X+255500
X+257625Y+274000
X+256375Y+279875
X+258500Y+264875
X+259500
X+260250Y+271125
X+260375Y+273500
X+261375Y+273875
Y+276625
X+262250Y+282625
X+264500Y+279625
X+270750Y+266625
Y+280875
X+237125Y+269750
X+264000Y+285250
T03
X+252234Y+284903
X+270266
T04
X+245500Y+276750
Y+281000
Y+280000
X+244500Y+281000
Y+280000
X+247500Y+276750
X+248500Y+281000
X+247500
X+246500
Y+280000
X+247500
X+248500
X+249500Y+281000
Y+280000
X+250500
Y+281000
X+245500Y+279000
X+244500
X+246500
X+247500
X+270000Y+268500
X+269000
Y+269500
X+270000
X+269000Y+270500
X+270000
X+269000Y+271500
X+270000
Y+272500
X+269000
X+238500Y+283500
Y+284500
X+250500Y+283500
X+249500
X+248500
X+247500
X+246500
X+245500
X+244500
X+243500
X+242500
X+241500
Y+284500
X+242500
X+243500
X+244500
X+245500
X+246500
X+247500
X+248500
X+249500
X+250500
X+240500
Y+283500
X+239500Y+284500
Y+283500
X+237500Y+284500
Y+283500
X+236500Y+284500
Y+283500
X+235500Y+284500
Y+283500
X+234500Y+284500
Y+283500
T05
X+253652Y+277679
X+268848
T06
X+253652Y+276498
X+268848
T07
X+243000Y+269221
X+265000Y+267174
T00
M30
